<?xml version="1.0" encoding="utf-8"?>
<!-- Generator: Adobe Illustrator 15.1.0, SVG Export Plug-In . SVG Version: 6.00 Build 0)  -->
<!DOCTYPE svg PUBLIC "-//W3C//DTD SVG 1.1//EN" "http://www.w3.org/Graphics/SVG/1.1/DTD/svg11.dtd">
<svg version="1.1" id="Ebene_1" xmlns="http://www.w3.org/2000/svg" xmlns:xlink="http://www.w3.org/1999/xlink" x="0px" y="0px"
	 width="52px" height="90px" viewBox="0 0 52 90" enable-background="new 0 0 52 90" xml:space="preserve">
<polygon fill="#663D32" points="44.025,90 6.416,90 2.268,13.396 49.834,13.396 "/>
<polygon fill="#472720" points="6.555,17.684 10.148,50.177 22.042,50.177 22.592,18.235 "/>
<polygon fill="#472720" points="44.993,18.097 41.398,50.177 27.432,50.177 28.538,18.235 "/>
<polygon fill="#472720" points="10.562,55.847 12.916,85.298 23.007,85.437 22.179,55.707 "/>
<polygon fill="#472720" points="26.982,55.568 26.571,85.021 38.736,85.021 40.811,55.707 "/>
<path fill="#F4B12C" d="M41.12,49.211c2.214,0,4.012,1.794,4.012,4.01c0,2.214-1.798,4.009-4.012,4.009
	c-2.212,0-4.01-1.795-4.01-4.009C37.11,51.005,38.908,49.211,41.12,49.211z"/>
<path d="M41.12,53.083c0.383,0,0.693,0.741,0.693,1.657c0,0.915-0.311,1.658-0.693,1.658c-0.38,0-0.689-0.743-0.689-1.658
	C40.431,53.824,40.74,53.083,41.12,53.083z"/>
<path fill="#EFCB35" d="M42.78,51.214c0,0.8-0.649,1.453-1.451,1.453h-7.468c-0.801,0-1.451-0.648-1.451-1.453l0,0
	c0-0.799,0.65-1.451,1.451-1.451h7.468C42.131,49.763,42.78,50.412,42.78,51.214L42.78,51.214z"/>
</svg>
