<?xml version="1.0" encoding="utf-8"?>
<!-- Generator: Adobe Illustrator 15.1.0, SVG Export Plug-In . SVG Version: 6.00 Build 0)  -->
<!DOCTYPE svg PUBLIC "-//W3C//DTD SVG 1.1//EN" "http://www.w3.org/Graphics/SVG/1.1/DTD/svg11.dtd">
<svg version="1.1" id="Ebene_1" xmlns="http://www.w3.org/2000/svg" xmlns:xlink="http://www.w3.org/1999/xlink" x="0px" y="0px"
	 width="41px" height="90px" viewBox="0 0 41 90" enable-background="new 0 0 41 90" xml:space="preserve">
<path fill="#B3BABA" d="M35.314,23.522c0-8.233-6.673-14.906-14.901-14.906c-8.231,0-14.906,6.673-14.906,14.906
	c0,0.574,0.036,1.139,0.099,1.697l1.831,31.375H33.39l1.83-31.375C35.28,24.661,35.314,24.097,35.314,23.522z"/>
<g>
	<g>
		<g>
			<g>
				<g>
					<defs>
						<path id="SVGID_1_" d="M35.314,23.522c0-8.233-6.673-14.906-14.901-14.906c-8.231,0-14.906,6.673-14.906,14.906
							c0,0.574,0.036,1.139,0.099,1.697l1.831,31.375H33.39l1.83-31.375C35.28,24.661,35.314,24.097,35.314,23.522z"/>
					</defs>
					<clipPath id="SVGID_2_">
						<use xlink:href="#SVGID_1_"  overflow="visible"/>
					</clipPath>
				</g>
			</g>
		</g>
	</g>
	<g>
		<g>
			<g>
				<g>
					<defs>
						<path id="SVGID_3_" d="M35.314,23.522c0-8.233-6.673-14.906-14.901-14.906c-8.231,0-14.906,6.673-14.906,14.906
							c0,0.574,0.036,1.139,0.099,1.697l1.831,31.375H33.39l1.83-31.375C35.28,24.661,35.314,24.097,35.314,23.522z"/>
					</defs>
					<clipPath id="SVGID_4_">
						<use xlink:href="#SVGID_3_"  overflow="visible"/>
					</clipPath>
				</g>
			</g>
		</g>
	</g>
</g>
<path fill="#E5E5E5" d="M36.853,59.259c0,1.098-0.889,1.987-1.987,1.987H5.655c-1.099,0-1.988-0.89-1.988-1.987v-0.934
	c0-1.098,0.889-1.987,1.988-1.987h29.21c1.099,0,1.987,0.89,1.987,1.987V59.259z"/>
<g>
	<defs>
		<path id="SVGID_5_" d="M35.314,23.522c0-8.233-6.673-14.906-14.901-14.906c-8.231,0-14.906,6.673-14.906,14.906
			c0,0.574,0.036,1.139,0.099,1.697l1.831,31.375H33.39l1.83-31.375C35.28,24.661,35.314,24.097,35.314,23.522z"/>
	</defs>
	<clipPath id="SVGID_6_">
		<use xlink:href="#SVGID_5_"  overflow="visible"/>
	</clipPath>
	<path opacity="0.5" clip-path="url(#SVGID_6_)" fill="#FFFFFF" d="M6.618,52.27l-7.137-7.137L34.79,9.824l7.137,7.137L6.618,52.27z
		"/>
	<path opacity="0.35" clip-path="url(#SVGID_6_)" enable-background="new    " d="M-3.929-1.035v60.88h48.378v-60.88H-3.929z
		 M40.124,25.453l-1.829,31.374H12.342l-1.83-31.374c-0.064-0.558-0.099-1.124-0.099-1.698c0-8.232,6.672-14.906,14.905-14.906
		c8.23,0,14.904,6.674,14.904,14.906C40.223,24.331,40.188,24.896,40.124,25.453z"/>
	<polygon clip-path="url(#SVGID_6_)" fill="#895C4A" points="37.553,34.253 22.34,34.253 22.714,6.677 18.273,6.677 18.834,34.253 
		1.914,34.253 1.914,39.161 18.933,39.161 19.325,58.441 22.013,58.441 22.273,39.161 37.553,39.161 	"/>
</g>
<g>
	<defs>
		<path id="SVGID_7_" d="M35.314,23.522c0-8.233-6.673-14.906-14.901-14.906c-8.231,0-14.906,6.673-14.906,14.906
			c0,0.574,0.036,1.139,0.099,1.697l1.831,31.375H33.39l1.83-31.375C35.28,24.661,35.314,24.097,35.314,23.522z"/>
	</defs>
	<clipPath id="SVGID_8_">
		<use xlink:href="#SVGID_7_"  overflow="visible"/>
	</clipPath>
</g>
</svg>
