<?xml version="1.0" encoding="utf-8"?>
<!-- Generator: Adobe Illustrator 15.1.0, SVG Export Plug-In . SVG Version: 6.00 Build 0)  -->
<!DOCTYPE svg PUBLIC "-//W3C//DTD SVG 1.1//EN" "http://www.w3.org/Graphics/SVG/1.1/DTD/svg11.dtd">
<svg version="1.1" id="Ebene_1" xmlns="http://www.w3.org/2000/svg" xmlns:xlink="http://www.w3.org/1999/xlink" x="0px" y="0px"
	 width="221px" height="221px" viewBox="0 0 221 221" enable-background="new 0 0 221 221" xml:space="preserve">
<g id="Symbol">
	<path fill="#FFFFFF" d="M5.455,114.562c19.484,8.434,35.34,15.197,55.058,23.741c1.36,0.593,2.738,0.755,4.11-0.442
		C111.813,93.714,157.939,50.42,205.131,6.273c6.187-5.58,18.1-2.158,14.278,3.013c-83.607,96.411-127.55,152.821-154.182,197.366
		c-2.421,4.069-7.017,3.839-9.509-0.063c-5.872-9.326-14.736-23.956-14.978-24.322c-18.889-32.972-19.491-34.345-37.523-65.834
		C2.366,114.889,4.21,113.76,5.455,114.562L5.455,114.562z"/>
</g>
</svg>
