<?xml version="1.0" encoding="utf-8"?>
<!-- Generator: Adobe Illustrator 15.1.0, SVG Export Plug-In . SVG Version: 6.00 Build 0)  -->
<!DOCTYPE svg PUBLIC "-//W3C//DTD SVG 1.1//EN" "http://www.w3.org/Graphics/SVG/1.1/DTD/svg11.dtd">
<svg version="1.1" id="Ebene_1" xmlns="http://www.w3.org/2000/svg" xmlns:xlink="http://www.w3.org/1999/xlink" x="0px" y="0px"
	 width="350px" height="140px" viewBox="0 0 350 140" enable-background="new 0 0 350 140" xml:space="preserve">
<g>
	<defs>
		<path id="SVGID_1_" d="M7.03,11.598l0.784,49.217h53.829l2.245-49.167L7.03,11.598z"/>
	</defs>
	<clipPath id="SVGID_2_">
		<use xlink:href="#SVGID_1_"  overflow="visible"/>
	</clipPath>
	<path opacity="0.3" clip-path="url(#SVGID_2_)" fill-rule="evenodd" clip-rule="evenodd" fill="#682B34" d="M6.537-1h57.524v23.017
		H6.537V-1z"/>
	<path clip-path="url(#SVGID_2_)" fill-rule="evenodd" clip-rule="evenodd" fill="#90545D" d="M6.537,24.883h57.524v23.016H6.537
		V24.883z"/>
	<path opacity="0.3" clip-path="url(#SVGID_2_)" fill-rule="evenodd" clip-rule="evenodd" fill="#682B34" d="M6.537,50.766h57.524
		v23.016H6.537V50.766z"/>
</g>
<path opacity="0.3" fill-rule="evenodd" clip-rule="evenodd" fill="#682B34" d="M78.784,41.521h51.892l-1.018,13.517H79.462
	L78.784,41.521z"/>
<path fill="#90545D" d="M104.82,19.635l26.571,19.79H78.25L104.82,19.635z"/>
<path fill-rule="evenodd" clip-rule="evenodd" fill="#3C2828" d="M135.128,38.769l-2.233,2.236l-28.247-19.542L77.235,40.805
	l-1.889-2.212l29.461-20.53L135.128,38.769z"/>
<path fill="#B3BABA" d="M188.104,23.789c0-7.137-5.786-12.923-12.922-12.923s-12.923,5.786-12.923,12.923
	c0,0.498,0.031,0.988,0.086,1.472l1.587,27.2h22.5l1.586-27.2C188.074,24.777,188.104,24.287,188.104,23.789z"/>
<g>
	<defs>
		<path id="SVGID_3_" d="M188.104,23.789c0-7.137-5.786-12.923-12.922-12.923s-12.923,5.786-12.923,12.923
			c0,0.498,0.031,0.988,0.086,1.472l1.587,27.2h22.5l1.586-27.2C188.074,24.777,188.104,24.287,188.104,23.789z"/>
	</defs>
	<clipPath id="SVGID_4_">
		<use xlink:href="#SVGID_3_"  overflow="visible"/>
	</clipPath>
	
		<rect x="154.578" y="23.521" transform="matrix(0.7071 0.7071 -0.7071 0.7071 71.4392 -117.0538)" opacity="0.49" clip-path="url(#SVGID_4_)" fill="#FFFFFF" width="44.879" height="8.375"/>
	<polygon clip-path="url(#SVGID_4_)" fill="#895C4A" points="190.045,33.093 176.856,33.093 177.18,9.185 173.33,9.185 
		173.816,33.093 159.147,33.093 159.147,37.348 173.902,37.348 174.242,54.063 176.572,54.063 176.798,37.348 190.045,37.348 	"/>
	<path opacity="0.35" clip-path="url(#SVGID_4_)" d="M154.082,2.499v52.78h41.941V2.499H154.082z M192.274,25.463l-1.587,27.201
		h-22.5l-1.586-27.201c-0.055-0.483-0.086-0.974-0.086-1.472c0-7.137,5.786-12.923,12.922-12.923s12.923,5.786,12.923,12.923
		C192.36,24.49,192.329,24.98,192.274,25.463z"/>
</g>
<path fill="#E5E5E5" d="M189.438,54.771c0,0.952-0.771,1.723-1.723,1.723H162.39c-0.952,0-1.723-0.771-1.723-1.723v-0.809
	c0-0.952,0.771-1.723,1.723-1.723h25.325c0.952,0,1.723,0.771,1.723,1.723V54.771z"/>
<polygon fill="#663D32" points="256.476,57.517 234.661,57.517 232.255,13.084 259.845,13.084 "/>
<polygon fill="#472720" points="234.741,15.571 236.826,34.418 243.724,34.418 244.044,15.891 "/>
<polygon fill="#472720" points="257.038,15.811 254.952,34.418 246.852,34.418 247.493,15.891 "/>
<polygon fill="#472720" points="237.067,37.707 238.431,54.79 244.285,54.87 243.804,37.626 "/>
<polygon fill="#472720" points="246.591,37.546 246.351,54.629 253.408,54.629 254.611,37.626 "/>
<circle fill="#F4B12C" cx="254.792" cy="36.183" r="2.326"/>
<g>
	<defs>
		<circle id="SVGID_5_" cx="254.792" cy="36.183" r="2.326"/>
	</defs>
	<clipPath id="SVGID_6_">
		<use xlink:href="#SVGID_5_"  overflow="visible"/>
	</clipPath>
	
		<rect x="254.986" y="29.706" transform="matrix(0.7069 -0.7073 0.7073 0.7069 49.3202 191.4317)" clip-path="url(#SVGID_6_)" fill="#FFDA9F" width="1.337" height="12.993"/>
</g>
<ellipse cx="254.792" cy="37.065" rx="0.401" ry="0.962"/>
<path fill="#EFCB35" d="M255.754,35.02c0,0.465-0.377,0.843-0.842,0.843h-4.331c-0.465,0-0.842-0.377-0.842-0.843l0,0
	c0-0.464,0.377-0.842,0.842-0.842h4.331C255.377,34.178,255.754,34.555,255.754,35.02L255.754,35.02z"/>
</svg>
